<svg width="95" height="95" viewBox="0 0 95 95" fill="none" xmlns="http://www.w3.org/2000/svg">
<g clip-path="url(#clip0_1_2)">
<path d="M51.848 79.152C42.7173 79.152 35.72 76.2507 30.856 70.448C26.0773 64.6453 23.688 57.2213 23.688 48.176C23.688 39.1307 26.12 31.7067 30.984 25.904C35.848 20.016 42.888 17.072 52.104 17.072C57.992 17.072 62.7707 18.224 66.44 20.528C70.1947 22.7467 72.072 25.6907 72.072 29.36C72.072 32.944 70.5787 35.76 67.592 37.808C64.6053 39.856 60.8507 40.88 56.328 40.88C58.888 38.1493 60.168 34.4373 60.168 29.744C60.168 27.0133 59.3147 24.752 57.608 22.96C55.9867 21.0827 53.8533 20.144 51.208 20.144C46.344 20.144 42.76 22.9173 40.456 28.464C38.2373 34.0107 37.128 40.5813 37.128 48.176C37.128 53.04 37.8107 57.4773 39.176 61.488C40.6267 65.4987 42.6747 68.6987 45.32 71.088C48.0507 73.392 51.1653 74.544 54.664 74.544C58.6747 74.544 62.0027 73.7333 64.648 72.112C67.3787 70.4053 69.8533 68.0587 72.072 65.072L73.608 66.224C71.304 70.064 68.3173 73.1787 64.648 75.568C61.064 77.9573 56.7973 79.152 51.848 79.152Z" fill="#20214F"/>
<path d="M55.696 68.464C56.9333 68.464 58.0213 68.2507 58.96 67.824C59.8987 67.3547 60.816 66.5867 61.712 65.52L62.48 66.096C61.4987 67.504 60.24 68.6133 58.704 69.424C57.2107 70.192 55.568 70.576 53.776 70.576C51.8133 70.576 50.0427 70.1067 48.464 69.168C46.928 68.2293 45.712 66.9493 44.816 65.328C43.92 63.664 43.472 61.7867 43.472 59.696C43.472 56.368 44.4747 53.7227 46.48 51.76C48.528 49.7547 51.2373 48.752 54.608 48.752C56.9973 48.752 58.9387 49.328 60.432 50.48C61.968 51.5893 62.736 53.04 62.736 54.832C62.736 56.88 61.8613 58.5227 60.112 59.76C58.4053 60.9547 56.0587 61.552 53.072 61.552C51.8773 61.552 50.7893 61.4667 49.808 61.296C50.0213 63.5147 50.6613 65.264 51.728 66.544C52.7947 67.824 54.1173 68.464 55.696 68.464ZM53.904 50.288C52.5813 50.288 51.536 51.0987 50.768 52.72C50.0427 54.2987 49.68 56.5173 49.68 59.376V60.4C50.1493 60.4 50.7253 60.3573 51.408 60.272C53.2 60.0587 54.5653 59.4827 55.504 58.544C56.4853 57.5627 56.976 56.2827 56.976 54.704C56.976 53.424 56.6773 52.3787 56.08 51.568C55.5253 50.7147 54.8 50.288 53.904 50.288Z" fill="#393A71"/>
</g>
<defs>
<clipPath id="clip0_1_2">
<rect width="95" height="95" fill="white"/>
</clipPath>
</defs>
</svg>
