<svg width="83" height="163" viewBox="0 0 83 163" fill="none" xmlns="http://www.w3.org/2000/svg">
<g clip-path="url(#clip0_1_2)">
<ellipse cx="42" cy="159" rx="11" ry="4" fill="black"/>
<rect x="31" y="97" width="22" height="62" fill="black"/>
<path d="M79 63C79 83.4345 62.4345 100 42 100C21.5655 100 5 83.4345 5 63C5 42.5655 21.5655 26 42 26C62.4345 26 79 42.5655 79 63ZM8.50403 63C8.50403 81.4993 23.5007 96.496 42 96.496C60.4993 96.496 75.496 81.4993 75.496 63C75.496 44.5007 60.4993 29.504 42 29.504C23.5007 29.504 8.50403 44.5007 8.50403 63Z" fill="black"/>
<path d="M55.2196 33.7789C60.3654 36.1399 64.7524 39.8867 67.8895 44.5997C71.0267 49.3127 72.7901 54.8058 72.9824 60.4641L70.0956 60.5622C69.9215 55.4398 68.3251 50.4668 65.4851 46.2002C62.645 41.9336 58.6735 38.5416 54.015 36.4041L55.2196 33.7789Z" fill="white"/>
<circle cx="71.5" cy="65" r="2" fill="white"/>
<path d="M83 33C83 39.6274 64.4198 45 41.5 45C18.5802 45 0 39.6274 0 33C0 26.3726 18.5802 21 41.5 21C64.4198 21 83 26.3726 83 33ZM13.3655 33C13.3655 37.493 25.9618 41.1353 41.5 41.1353C57.0382 41.1353 69.6345 37.493 69.6345 33C69.6345 28.507 57.0382 24.8647 41.5 24.8647C25.9618 24.8647 13.3655 28.507 13.3655 33Z" fill="black"/>
<ellipse cx="42" cy="33" rx="28" ry="8" fill="white"/>
<path d="M33.7564 3.3184C39.0459 1.18915 44.9541 1.18915 50.2436 3.3184L60.6901 7.52357C69.3805 11.0219 72.9309 21.4262 68.1919 29.5072V29.5072C65.4392 34.2012 60.4051 37.0848 54.9635 37.0848H29.0365C23.5949 37.0848 18.5608 34.2012 15.8081 29.5072V29.5072C11.0691 21.4262 14.6195 11.0219 23.3099 7.52357L33.7564 3.3184Z" fill="black"/>
<ellipse cx="42" cy="33" rx="21" ry="6" fill="black"/>
<ellipse cx="24.345" cy="59.1113" rx="4" ry="2" transform="rotate(40.2622 24.345 59.1113)" fill="#D9D9D9"/>
<circle cx="28" cy="63" r="4" fill="black"/>
<ellipse cx="33.4482" cy="59.2814" rx="4" ry="2" transform="rotate(-20.6361 33.4482 59.2814)" fill="#D9D9D9"/>
</g>
<defs>
<clipPath id="clip0_1_2">
<rect width="83" height="163" fill="white"/>
</clipPath>
</defs>
</svg>
